<svg width="20" height="27" viewBox="0 0 20 27" fill="none" xmlns="http://www.w3.org/2000/svg">
<path d="M19.9086 10.7842C19.6722 10.1844 19.0577 9.91174 18.5377 10.1844C17.8286 10.5388 16.8359 11.0568 16.1504 11.384C16.1504 11.384 16.1504 11.3567 16.1268 11.3567C15.725 10.1571 15.134 8.33045 13.6449 7.64886C13.0068 7.34896 12.1559 6.91275 12.0613 6.85822C9.95767 5.8222 6.41221 6.39474 5.84494 6.64011C5.51403 6.74916 4.99403 6.99454 3.26857 10.7569C3.00857 11.3567 3.19766 12.0656 3.69403 12.3927C3.85948 12.5018 4.02494 12.529 4.19039 12.529C4.56857 12.529 4.92312 12.2837 5.11221 11.902C5.65585 10.7297 6.36494 9.31194 6.69585 8.87573C7.07403 8.79393 7.9013 8.68488 8.77585 8.68488C7.85403 10.1299 7.00312 12.4473 6.76676 13.8922C6.3413 15.5008 5.67948 17.1639 5.34857 17.6819C4.02494 17.5728 1.37766 17.2729 1.35402 17.2729C0.668568 17.1639 0.0776584 17.7091 0.00674924 18.4725C-0.0641599 19.2359 0.432204 19.9447 1.09402 19.9993C1.23584 20.0265 5.15948 20.4355 5.67948 20.4628C6.19948 20.49 7.26312 20.1629 8.42131 16.7004C9.22494 17.3274 10.8795 18.5816 11.3759 19.2086C11.234 20.1629 10.5486 22.7529 9.93404 24.9067C9.72131 25.6428 10.0759 26.4335 10.714 26.6789C10.8322 26.7334 10.974 26.7606 11.0922 26.7606C11.6122 26.7606 12.0849 26.379 12.2504 25.8064C12.8649 23.6799 13.8813 19.972 13.8577 18.9087C13.834 17.8727 13.0068 16.9457 11.1868 15.4735C11.754 13.9195 12.6286 11.7384 13.4795 10.5115C13.7631 11.0023 13.9759 11.6566 14.1413 12.1746C14.3777 12.8562 14.7559 14.0831 15.6304 14.0831C15.7722 14.0831 15.914 14.0558 16.0795 13.974C16.6704 13.7286 19.0813 12.5018 19.365 12.3382C19.9086 12.0928 20.145 11.384 19.9086 10.7842Z" fill="#7d86a9"/>
<path d="M16.0154 4.79224C16.5447 3.36665 15.972 1.71601 14.736 1.10542C13.5001 0.494829 12.0691 1.15552 11.5397 2.5811C11.0104 4.00669 11.5832 5.65733 12.8191 6.26792C14.055 6.87851 15.486 6.21783 16.0154 4.79224Z" fill="#7d86a9"/>
</svg>
