<svg width="15" height="20" viewBox="0 0 15 20" fill="none" xmlns="http://www.w3.org/2000/svg">
<g clip-path="url(#clip0)">
<path fill-rule="evenodd" clip-rule="evenodd" d="M13.125 13.6639L12.5 12.7039V2.01766C12.5 1.66392 12.7796 1.37766 13.125 1.37766C13.4704 1.37766 13.75 1.66392 13.75 2.01766V12.7039L13.125 13.6639ZM14.895 13.2527C14.9635 13.1475 15 13.024 15 12.8977V2.01766C15 0.956994 14.1608 0.0976562 13.125 0.0976562C12.0892 0.0976562 11.25 0.956994 11.25 2.01766V12.8977C11.25 13.024 11.2865 13.1475 11.355 13.2527L12.605 15.1727C12.8524 15.5527 13.3976 15.5527 13.645 15.1727L14.895 13.2527Z" fill="#7D86A9"/>
<path fill-rule="evenodd" clip-rule="evenodd" d="M8.75 14.1784H1.25V1.37839H5.36612L8.75 4.84349V14.1784ZM10 4.57839C10 4.40865 9.93415 4.24586 9.81694 4.12584L6.06694 0.28584C5.94973 0.165817 5.79076 0.0983887 5.625 0.0983887H0.625C0.279822 0.0983887 0 0.384926 0 0.738389V14.8184C0 15.1719 0.279822 15.4584 0.625 15.4584H9.375C9.72018 15.4584 10 15.1719 10 14.8184V4.57839Z" fill="#7D86A9"/>
<path fill-rule="evenodd" clip-rule="evenodd" d="M6.25 3.93772V2.28282L7.86612 3.93772H6.25ZM9.375 5.21772C9.93182 5.21772 10.2107 4.52835 9.81694 4.12517L6.06694 0.28517C5.67321 -0.118007 5 0.167539 5 0.737719V4.57772C5 4.93118 5.27982 5.21772 5.625 5.21772H9.375Z" fill="#7D86A9"/>
<path fill-rule="evenodd" clip-rule="evenodd" d="M2.5 7.7778H6.875C7.22018 7.7778 7.5 7.49127 7.5 7.1378C7.5 6.78434 7.22018 6.4978 6.875 6.4978H2.5C2.15482 6.4978 1.875 6.78434 1.875 7.1378C1.875 7.49127 2.15482 7.7778 2.5 7.7778Z" fill="#7D86A9"/>
<path fill-rule="evenodd" clip-rule="evenodd" d="M2.5 10.3376H6.875C7.22018 10.3376 7.5 10.0511 7.5 9.69762C7.5 9.34416 7.22018 9.05762 6.875 9.05762H2.5C2.15482 9.05762 1.875 9.34416 1.875 9.69762C1.875 10.0511 2.15482 10.3376 2.5 10.3376Z" fill="#7D86A9"/>
<path fill-rule="evenodd" clip-rule="evenodd" d="M2.5 12.8977H6.875C7.22018 12.8977 7.5 12.6111 7.5 12.2577C7.5 11.9042 7.22018 11.6177 6.875 11.6177H2.5C2.15482 11.6177 1.875 11.9042 1.875 12.2577C1.875 12.6111 2.15482 12.8977 2.5 12.8977Z" fill="#7D86A9"/>
<path fill-rule="evenodd" clip-rule="evenodd" d="M11.875 4.57785H14.375C14.7202 4.57785 15 4.29131 15 3.93785C15 3.58439 14.7202 3.29785 14.375 3.29785H11.875C11.5298 3.29785 11.25 3.58439 11.25 3.93785C11.25 4.29131 11.5298 4.57785 11.875 4.57785Z" fill="#7D86A9"/>
</g>
<defs>
<clipPath id="clip0">
<rect width="15" height="20" fill="white"/>
</clipPath>
</defs>
</svg>
